<svg id="visual" viewBox="0 0 1290 200" width="1290" height="200" xmlns="http://www.w3.org/2000/svg" xmlns:xlink="http://www.w3.org/1999/xlink" version="1.1"><rect x="0" y="0" width="1290" height="200" fill="#212529"></rect><path d="M0 106L30.7 104.7C61.3 103.3 122.7 100.7 184.2 95.7C245.7 90.7 307.3 83.3 368.8 85.5C430.3 87.7 491.7 99.3 553 102.8C614.3 106.3 675.7 101.7 737 95.7C798.3 89.7 859.7 82.3 921.2 78.3C982.7 74.3 1044.3 73.7 1105.8 79.5C1167.3 85.3 1228.7 97.7 1259.3 103.8L1290 110L1290 0L1259.3 0C1228.7 0 1167.3 0 1105.8 0C1044.3 0 982.7 0 921.2 0C859.7 0 798.3 0 737 0C675.7 0 614.3 0 553 0C491.7 0 430.3 0 368.8 0C307.3 0 245.7 0 184.2 0C122.7 0 61.3 0 30.7 0L0 0Z" fill="#3460a4"></path><path d="M0 85L30.7 83.5C61.3 82 122.7 79 184.2 76.2C245.7 73.3 307.3 70.7 368.8 72.5C430.3 74.3 491.7 80.7 553 84.3C614.3 88 675.7 89 737 88.2C798.3 87.3 859.7 84.7 921.2 80.2C982.7 75.7 1044.3 69.3 1105.8 68.5C1167.3 67.7 1228.7 72.3 1259.3 74.7L1290 77L1290 0L1259.3 0C1228.7 0 1167.3 0 1105.8 0C1044.3 0 982.7 0 921.2 0C859.7 0 798.3 0 737 0C675.7 0 614.3 0 553 0C491.7 0 430.3 0 368.8 0C307.3 0 245.7 0 184.2 0C122.7 0 61.3 0 30.7 0L0 0Z" fill="#465fb5"></path><path d="M0 63L30.7 66C61.3 69 122.7 75 184.2 77.8C245.7 80.7 307.3 80.3 368.8 75C430.3 69.7 491.7 59.3 553 56.2C614.3 53 675.7 57 737 60.8C798.3 64.7 859.7 68.3 921.2 69C982.7 69.7 1044.3 67.3 1105.8 66.3C1167.3 65.3 1228.7 65.7 1259.3 65.8L1290 66L1290 0L1259.3 0C1228.7 0 1167.3 0 1105.8 0C1044.3 0 982.7 0 921.2 0C859.7 0 798.3 0 737 0C675.7 0 614.3 0 553 0C491.7 0 430.3 0 368.8 0C307.3 0 245.7 0 184.2 0C122.7 0 61.3 0 30.7 0L0 0Z" fill="#615bc1"></path><path d="M0 42L30.7 44C61.3 46 122.7 50 184.2 53.5C245.7 57 307.3 60 368.8 57.7C430.3 55.3 491.7 47.7 553 45.3C614.3 43 675.7 46 737 47.3C798.3 48.7 859.7 48.3 921.2 50C982.7 51.7 1044.3 55.3 1105.8 56.2C1167.3 57 1228.7 55 1259.3 54L1290 53L1290 0L1259.3 0C1228.7 0 1167.3 0 1105.8 0C1044.3 0 982.7 0 921.2 0C859.7 0 798.3 0 737 0C675.7 0 614.3 0 553 0C491.7 0 430.3 0 368.8 0C307.3 0 245.7 0 184.2 0C122.7 0 61.3 0 30.7 0L0 0Z" fill="#8052c9"></path><path d="M0 22L30.7 26C61.3 30 122.7 38 184.2 39.3C245.7 40.7 307.3 35.3 368.8 33.2C430.3 31 491.7 32 553 33.2C614.3 34.3 675.7 35.7 737 36.3C798.3 37 859.7 37 921.2 36.3C982.7 35.7 1044.3 34.3 1105.8 34.5C1167.3 34.7 1228.7 36.3 1259.3 37.2L1290 38L1290 0L1259.3 0C1228.7 0 1167.3 0 1105.8 0C1044.3 0 982.7 0 921.2 0C859.7 0 798.3 0 737 0C675.7 0 614.3 0 553 0C491.7 0 430.3 0 368.8 0C307.3 0 245.7 0 184.2 0C122.7 0 61.3 0 30.7 0L0 0Z" fill="#a243cb"></path><path d="M0 13L30.7 12.7C61.3 12.3 122.7 11.7 184.2 13.2C245.7 14.7 307.3 18.3 368.8 20.2C430.3 22 491.7 22 553 22.3C614.3 22.7 675.7 23.3 737 22.7C798.3 22 859.7 20 921.2 18.3C982.7 16.7 1044.3 15.3 1105.8 15.5C1167.3 15.7 1228.7 17.3 1259.3 18.2L1290 19L1290 0L1259.3 0C1228.7 0 1167.3 0 1105.8 0C1044.3 0 982.7 0 921.2 0C859.7 0 798.3 0 737 0C675.7 0 614.3 0 553 0C491.7 0 430.3 0 368.8 0C307.3 0 245.7 0 184.2 0C122.7 0 61.3 0 30.7 0L0 0Z" fill="#c424c7"></path></svg>