<svg id="visual" viewBox="0 0 1290 200" width="1290" height="200" xmlns="http://www.w3.org/2000/svg" xmlns:xlink="http://www.w3.org/1999/xlink" version="1.1"><rect x="0" y="0" width="1290" height="200" fill="#212529"></rect><path d="M0 93L18 103C36 113 72 133 107.8 137.2C143.7 141.3 179.3 129.7 215.2 128C251 126.3 287 134.7 322.8 134C358.7 133.3 394.3 123.7 430.2 121.5C466 119.3 502 124.7 537.8 125.5C573.7 126.3 609.3 122.7 645.2 117.2C681 111.7 717 104.3 752.8 98.5C788.7 92.7 824.3 88.3 860.2 96.7C896 105 932 126 967.8 130.7C1003.7 135.3 1039.3 123.7 1075.2 114.2C1111 104.7 1147 97.3 1182.8 99.2C1218.7 101 1254.3 112 1272.2 117.5L1290 123L1290 201L1272.2 201C1254.3 201 1218.7 201 1182.8 201C1147 201 1111 201 1075.2 201C1039.3 201 1003.7 201 967.8 201C932 201 896 201 860.2 201C824.3 201 788.7 201 752.8 201C717 201 681 201 645.2 201C609.3 201 573.7 201 537.8 201C502 201 466 201 430.2 201C394.3 201 358.7 201 322.8 201C287 201 251 201 215.2 201C179.3 201 143.7 201 107.8 201C72 201 36 201 18 201L0 201Z" fill="#3460a4" stroke-linecap="round" stroke-linejoin="miter"></path></svg>